<svg width="25" height="24" viewBox="0 0 25 24" fill="none" xmlns="http://www.w3.org/2000/svg">
<path d="M12.5 0.75C10.3813 0.751693 8.30612 1.35165 6.51337 2.4808H18.4702C16.6822 1.35461 14.6131 0.754774 12.5 0.75Z" fill="#B22234"/>
<path d="M6.51337 2.48071C5.74109 2.96961 5.03126 3.5508 4.3996 4.21143H20.6137C19.9728 3.54889 19.2529 2.96763 18.4702 2.48071H6.51337Z" fill="white"/>
<path d="M4.39957 4.21143C3.88896 4.74228 3.43171 5.322 3.03442 5.94223H21.9784C21.5812 5.32201 21.1241 4.7423 20.6136 4.21143H4.39957Z" fill="#B22234"/>
<path d="M3.03448 5.94238C2.6794 6.49156 2.37288 7.07066 2.11841 7.6731H22.8734C22.6257 7.0714 22.3263 6.49232 21.9785 5.94238H3.03448Z" fill="white"/>
<path d="M2.11838 7.6731C1.88803 8.23421 1.70344 8.81303 1.56641 9.4039H23.4328C23.2933 8.81281 23.1063 8.23399 22.8734 7.6731H2.11838Z" fill="#B22234"/>
<path d="M1.56644 9.40381C1.43054 9.97277 1.33923 10.5515 1.29333 11.1346H23.7134C23.665 10.5513 23.5712 9.97256 23.4328 9.40381H1.56644Z" fill="white"/>
<path d="M1.2933 11.1348C1.26776 11.4226 1.25332 11.7112 1.25 12.0001C1.25109 12.2889 1.26331 12.5776 1.28662 12.8655H23.7067C23.7322 12.5777 23.7467 12.289 23.75 12.0001C23.7489 11.7113 23.7367 11.4226 23.7134 11.1348H1.2933Z" fill="#B22234"/>
<path d="M1.28662 12.8652C1.33499 13.4486 1.42881 14.0273 1.56723 14.596H23.4336C23.5695 14.0271 23.6608 13.4484 23.7067 12.8652H1.28662Z" fill="white"/>
<path d="M1.56726 14.5962C1.7067 15.1873 1.89377 15.7661 2.12665 16.327H22.8817C23.112 15.7659 23.2966 15.1871 23.4336 14.5962H1.56726Z" fill="#B22234"/>
<path d="M2.12659 16.3269C2.37428 16.9286 2.67372 17.5077 3.02151 18.0576H21.9655C22.3206 17.5084 22.6271 16.9293 22.8816 16.3269H2.12659Z" fill="white"/>
<path d="M3.02155 18.0576C3.41872 18.6778 3.87584 19.2576 4.38632 19.7884H20.6004C21.111 19.2576 21.5683 18.6779 21.9655 18.0576H3.02155Z" fill="#B22234"/>
<path d="M4.38635 19.7886C5.02723 20.4511 5.7471 21.0324 6.52979 21.5193H18.4867C19.2589 21.0304 19.9688 20.4492 20.6004 19.7886H4.38635Z" fill="white"/>
<path d="M6.52979 21.5193C8.31782 22.6455 10.3869 23.2453 12.5 23.2501C14.6187 23.2484 16.6939 22.6484 18.4867 21.5193H6.52979Z" fill="#B22234"/>
<path d="M12.5 0.75C9.51631 0.75 6.65483 1.93526 4.54505 4.04505C2.43526 6.15483 1.25 9.01631 1.25 12C1.25147 12.2973 1.26473 12.5944 1.28973 12.8906H13.3906V0.794586C13.0945 0.767959 12.7973 0.753086 12.5 0.75Z" fill="#3C3B6E"/>
<path d="M8.47371 1.50847C8.32382 1.56319 8.1751 1.62109 8.02767 1.68214L8.192 1.80702L8.08086 2.16618L8.37529 1.94636L8.67833 2.17671L8.56453 1.805L8.86757 1.57878H8.49523L8.47371 1.50847ZM10.382 1.20117L10.2651 1.57875H9.89406L10.1944 1.80704L10.0832 2.16616L10.3777 1.94635L10.6807 2.17669L10.5669 1.80505L10.87 1.57875H10.4976L10.382 1.20117ZM12.3844 1.20117L12.2675 1.57875H11.8964L12.1968 1.80704L12.0856 2.16616L12.38 1.94635L12.6831 2.17669L12.5693 1.80505L12.8723 1.57875H12.5L12.3844 1.20117ZM5.57918 3.14726C5.52628 3.18671 5.47373 3.22663 5.42153 3.26701L5.67476 3.45955L5.57918 3.14726ZM7.37843 2.484L7.26154 2.86158H6.89049L7.19084 3.08987L7.07967 3.44899L7.37408 3.22918L7.67715 3.45952L7.56334 3.08788L7.86637 2.86158H7.49406L7.37843 2.484ZM9.38081 2.484L9.26393 2.86158H8.89287L9.19323 3.08987L9.08206 3.44899L9.37647 3.22918L9.67953 3.45952L9.56573 3.08788L9.86876 2.86158H9.49644L9.38081 2.484ZM11.3832 2.484L11.2663 2.86158H10.8953L11.1956 3.08987L11.0844 3.44899L11.3789 3.22918L11.6819 3.45952L11.5681 3.08788L11.8711 2.86158H11.4988L11.3832 2.484ZM4.48119 4.11415C4.37022 4.23161 4.2618 4.35145 4.15599 4.47358L4.07607 4.73176L4.3705 4.51194L4.67354 4.74229L4.55974 4.37068L4.86278 4.14436H4.49044L4.48119 4.11415ZM6.37724 3.76678L6.26034 4.14436H5.88929L6.18964 4.37265L6.07847 4.73176L6.37289 4.51196L6.67596 4.7423L6.56215 4.37066L6.86518 4.14436H6.49286L6.37724 3.76678ZM8.37962 3.76678L8.26273 4.14436H7.89168L8.19203 4.37265L8.08086 4.73176L8.37527 4.51196L8.67834 4.7423L8.56453 4.37066L8.86756 4.14436H8.49525L8.37962 3.76678ZM10.382 3.76678L10.2651 4.14436H9.89406L10.1944 4.37265L10.0832 4.73176L10.3777 4.51196L10.6807 4.7423L10.5669 4.37066L10.87 4.14436H10.4976L10.382 3.76678ZM12.3844 3.76678L12.2675 4.14436H11.8964L12.1968 4.37265L12.0856 4.73176L12.38 4.51196L12.6831 4.7423L12.5693 4.37066L12.8723 4.14436H12.5L12.3844 3.76678ZM3.45864 5.32704C3.35498 5.46518 3.25452 5.60569 3.15734 5.74846L3.07494 6.0146L3.36928 5.79478L3.67241 6.02513L3.55861 5.65352L3.86156 5.4272H3.48931L3.45864 5.32704ZM5.37604 5.04961L5.25915 5.42718H4.8881L5.18845 5.65548L5.07728 6.01459L5.3717 5.79479L5.67477 6.02513L5.56096 5.65348L5.86399 5.42718H5.49167L5.37604 5.04961ZM7.37843 5.04961L7.26154 5.42718H6.89049L7.19084 5.65548L7.07967 6.01459L7.37408 5.79479L7.67715 6.02513L7.56334 5.65348L7.86637 5.42718H7.49406L7.37843 5.04961ZM9.38081 5.04961L9.26393 5.42718H8.89287L9.19323 5.65548L9.08206 6.01459L9.37647 5.79479L9.67953 6.02513L9.56573 5.65348L9.86876 5.42718H9.49644L9.38081 5.04961ZM11.3832 5.04961L11.2663 5.42718H10.8953L11.1956 5.65548L11.0844 6.01459L11.3789 5.79479L11.6819 6.02513L11.5681 5.65348L11.8711 5.42718H11.4988L11.3832 5.04961ZM2.58119 6.71003C2.51396 6.83605 2.44913 6.96333 2.38674 7.09181L2.67119 7.30797L2.55739 6.93635L2.86043 6.71003H2.58119ZM4.37485 6.33244L4.25796 6.71001H3.88691L4.18726 6.93831L4.07609 7.29742L4.37051 7.07762L4.67357 7.30796L4.55977 6.93631L4.8628 6.71001H4.49048L4.37485 6.33244ZM6.37724 6.33244L6.26034 6.71001H5.88929L6.18964 6.93831L6.07847 7.29742L6.37289 7.07762L6.67596 7.30796L6.56215 6.93631L6.86518 6.71001H6.49286L6.37724 6.33244ZM8.37962 6.33244L8.26273 6.71001H7.89168L8.19203 6.93831L8.08086 7.29742L8.37527 7.07762L8.67834 7.30796L8.56453 6.93631L8.86756 6.71001H8.49525L8.37962 6.33244ZM10.382 6.33244L10.2651 6.71001H9.89406L10.1944 6.93831L10.0832 7.29742L10.3777 7.07762L10.6807 7.30796L10.5669 6.93631L10.87 6.71001H10.4976L10.382 6.33244ZM12.3844 6.33244L12.2675 6.71001H11.8964L12.1968 6.93831L12.0856 7.29742L12.38 7.07762L12.6831 7.30796L12.5693 6.93631L12.8723 6.71001H12.5L12.3844 6.33244ZM3.37366 7.61522L3.25677 7.99279H2.88571L3.18607 8.22109L3.0749 8.5802L3.36931 8.3604L3.67238 8.59074L3.55858 8.21909L3.8616 7.99279H3.48928L3.37366 7.61522ZM5.37604 7.61522L5.25915 7.99279H4.8881L5.18845 8.22109L5.07728 8.5802L5.3717 8.3604L5.67477 8.59074L5.56096 8.21909L5.86399 7.99279H5.49167L5.37604 7.61522ZM7.37843 7.61522L7.26154 7.99279H6.89049L7.19084 8.22109L7.07967 8.5802L7.37408 8.3604L7.67715 8.59074L7.56334 8.21909L7.86637 7.99279H7.49406L7.37843 7.61522ZM9.38081 7.61522L9.26393 7.99279H8.89287L9.19323 8.22109L9.08206 8.5802L9.37647 8.3604L9.67953 8.59074L9.56573 8.21909L9.86876 7.99279H9.49644L9.38081 7.61522ZM11.3832 7.61522L11.2663 7.99279H10.8953L11.1956 8.22109L11.0844 8.5802L11.3789 8.3604L11.6819 8.59074L11.5681 8.21909L11.8711 7.99279H11.4988L11.3832 7.61522ZM2.37247 8.89804L2.25558 9.27562H1.88452L2.18488 9.50392L2.07371 9.86303L2.36812 9.64322L2.67119 9.87357L2.55738 9.50192L2.86041 9.27562H2.4881L2.37247 8.89804ZM4.37485 8.89804L4.25796 9.27562H3.88691L4.18726 9.50392L4.07609 9.86303L4.37051 9.64322L4.67357 9.87357L4.55977 9.50192L4.8628 9.27562H4.49048L4.37485 8.89804ZM6.37724 8.89804L6.26034 9.27562H5.88929L6.18964 9.50392L6.07847 9.86303L6.37289 9.64322L6.67596 9.87357L6.56215 9.50192L6.86518 9.27562H6.49286L6.37724 8.89804ZM8.37962 8.89804L8.26273 9.27562H7.89168L8.19203 9.50392L8.08086 9.86303L8.37527 9.64322L8.67834 9.87357L8.56453 9.50192L8.86756 9.27562H8.49525L8.37962 8.89804ZM10.382 8.89804L10.2651 9.27562H9.89406L10.1944 9.50392L10.0832 9.86303L10.3777 9.64322L10.6807 9.87357L10.5669 9.50192L10.87 9.27562H10.4976L10.382 8.89804ZM12.3844 8.89804L12.2675 9.27562H11.8964L12.1968 9.50392L12.0856 9.86303L12.38 9.64322L12.6831 9.87357L12.5693 9.50192L12.8723 9.27562H12.5L12.3844 8.89804ZM3.37366 10.1809L3.25677 10.5584H2.88571L3.18607 10.7867L3.0749 11.1459L3.36931 10.9261L3.67238 11.1564L3.55858 10.7847L3.8616 10.5584H3.48928L3.37366 10.1809ZM5.37604 10.1809L5.25915 10.5584H4.8881L5.18845 10.7867L5.07728 11.1459L5.3717 10.9261L5.67477 11.1564L5.56096 10.7847L5.86399 10.5584H5.49167L5.37604 10.1809ZM7.37843 10.1809L7.26154 10.5584H6.89049L7.19084 10.7867L7.07967 11.1459L7.37408 10.9261L7.67715 11.1564L7.56334 10.7847L7.86637 10.5584H7.49406L7.37843 10.1809ZM9.38081 10.1809L9.26393 10.5584H8.89287L9.19323 10.7867L9.08206 11.1459L9.37647 10.9261L9.67953 11.1564L9.56573 10.7847L9.86876 10.5584H9.49644L9.38081 10.1809ZM11.3832 10.1809L11.2663 10.5584H10.8953L11.1956 10.7867L11.0844 11.1459L11.3789 10.9261L11.6819 11.1564L11.5681 10.7847L11.8711 10.5584H11.4988L11.3832 10.1809ZM2.37247 11.4637L2.25558 11.8412H1.88452L2.18488 12.0695L2.07371 12.4286L2.36812 12.2088L2.67119 12.4392L2.55738 12.0675L2.86041 11.8412H2.4881L2.37247 11.4637ZM4.37485 11.4637L4.25796 11.8412H3.88691L4.18726 12.0695L4.07609 12.4286L4.37051 12.2088L4.67357 12.4392L4.55977 12.0675L4.8628 11.8412H4.49048L4.37485 11.4637ZM6.37724 11.4637L6.26034 11.8412H5.88929L6.18964 12.0695L6.07847 12.4286L6.37289 12.2088L6.67596 12.4392L6.56215 12.0675L6.86518 11.8412H6.49286L6.37724 11.4637ZM8.37962 11.4637L8.26273 11.8412H7.89168L8.19203 12.0695L8.08086 12.4286L8.37527 12.2088L8.67834 12.4392L8.56453 12.0675L8.86756 11.8412H8.49525L8.37962 11.4637ZM10.382 11.4637L10.2651 11.8412H9.89406L10.1944 12.0695L10.0832 12.4286L10.3777 12.2088L10.6807 12.4392L10.5669 12.0675L10.87 11.8412H10.4976L10.382 11.4637ZM12.3844 11.4637L12.2675 11.8412H11.8964L12.1968 12.0695L12.0856 12.4286L12.38 12.2088L12.6831 12.4392L12.5693 12.0675L12.8723 11.8412H12.5L12.3844 11.4637Z" fill="white"/>
</svg>
